<?xml version="1.0" standalone="no"?>
<!DOCTYPE svg PUBLIC "-//W3C//DTD SVG 20010904//EN"
 "http://www.w3.org/TR/2001/REC-SVG-20010904/DTD/svg10.dtd">
<svg version="1.0" xmlns="http://www.w3.org/2000/svg"
 width="800.000000pt" height="500.000000pt" viewBox="0 0 800.000000 500.000000"
 preserveAspectRatio="xMidYMid meet">
<metadata>
Created by potrace 1.16, written by Peter Selinger 2001-2019
</metadata>
<g transform="translate(0.000000,500.000000) scale(0.100000,-0.100000)"
fill="#000000" stroke="none">
<path d="M1311 3489 c-433 -91 -764 -428 -846 -862 -8 -43 -15 -99 -15 -123 0
-43 1 -44 34 -44 l33 0 6 123 c3 67 11 141 18 165 l11 42 53 0 c50 0 55 -2 75
-35 26 -42 86 -93 186 -156 61 -38 80 -46 102 -40 23 6 28 14 33 55 6 55 18
66 76 66 54 0 87 37 103 117 24 120 31 135 86 194 l55 57 -20 41 c-15 28 -21
59 -21 104 0 57 -3 67 -30 93 -25 25 -29 37 -30 80 0 62 -3 60 128 75 113 13
286 5 384 -17 l68 -16 0 -41 c0 -44 29 -118 58 -150 9 -11 42 -32 73 -47 l56
-29 61 62 c34 35 62 65 62 68 0 10 -132 95 -201 130 -133 67 -306 110 -438
108 -36 0 -108 -9 -160 -20z"/>
<path d="M2398 3314 l112 -89 0 -51 0 -51 -102 -88 c-57 -49 -110 -95 -118
-102 -16 -15 64 19 160 67 44 22 73 30 113 30 l54 0 37 -172 c20 -95 39 -180
43 -188 3 -8 32 111 65 265 46 219 64 284 79 297 16 13 18 21 10 36 -14 26
-32 32 -96 32 -41 0 -333 63 -450 97 -11 3 31 -34 93 -83z"/>
<path d="M6795 3207 l-40 -13 -6 -69 c-4 -46 -36 -167 -93 -352 -47 -155 -89
-289 -92 -298 -5 -13 8 -15 90 -15 l96 0 0 49 c0 35 29 146 95 358 90 295 93
309 77 326 -24 23 -77 29 -127 14z"/>
<path d="M3048 3129 c-20 -8 -32 -24 -48 -65 -11 -30 -20 -58 -20 -62 0 -4 27
21 59 56 l58 62 87 0 86 0 0 -47 c0 -35 -128 -522 -157 -600 -4 -10 16 -13 80
-13 117 0 117 0 117 74 0 57 28 168 131 519 l20 68 82 -3 82 -3 27 -55 c15
-30 32 -55 39 -55 7 0 21 26 32 59 16 49 17 60 6 67 -19 12 -647 10 -681 -2z"/>
<path d="M3913 2958 c-32 -11 -33 -12 -33 -70 0 -44 -15 -106 -55 -237 -30
-98 -55 -181 -55 -184 0 -4 43 -7 95 -7 l95 0 0 56 c0 50 65 291 100 372 9 20
6 28 -19 53 -32 31 -68 36 -128 17z"/>
<path d="M5313 2960 c-21 -8 -23 -16 -23 -73 0 -45 -12 -104 -39 -198 -25 -83
-36 -139 -31 -149 28 -53 128 -93 192 -77 l40 10 -31 13 c-30 12 -31 16 -31
71 0 40 13 102 42 197 46 151 45 155 -12 194 -34 23 -69 27 -107 12z"/>
<path d="M5684 2955 c-12 -8 -27 -27 -33 -44 -15 -34 -1 -69 43 -110 20 -19
26 -34 26 -65 l0 -41 20 25 c11 14 28 51 40 84 18 55 19 61 4 93 -15 30 -57
73 -73 73 -4 0 -16 -7 -27 -15z"/>
<path d="M6290 2883 c0 -57 -5 -98 -14 -115 -17 -32 -16 -33 51 -13 59 17 98
45 118 85 14 27 13 31 -11 60 -29 34 -92 70 -124 70 -19 0 -20 -6 -20 -87z"/>
<path d="M4890 2890 c0 -79 -34 -200 -56 -200 -10 0 -14 -13 -14 -39 0 -21 -7
-55 -15 -74 -14 -34 -14 -37 9 -64 33 -40 84 -54 125 -37 30 13 31 15 31 79 0
44 10 99 30 167 17 57 28 111 24 122 -9 30 -53 75 -96 97 l-38 19 0 -70z"/>
<path d="M6057 2917 c-52 -37 -75 -64 -105 -124 -52 -100 -47 -175 14 -243 78
-86 196 -108 293 -55 l55 30 -90 5 c-147 8 -161 28 -149 205 5 70 14 119 30
158 27 67 19 71 -48 24z"/>
<path d="M1779 2741 c-371 -256 -865 -416 -1358 -440 l-135 -6 52 -28 c99 -54
333 -79 533 -58 323 35 539 109 998 342 l141 71 0 62 c0 62 0 62 -37 80 -100
49 -88 50 -194 -23z"/>
<path d="M4560 2705 c-51 -16 -101 -60 -120 -105 -10 -25 -9 -34 7 -62 21 -36
73 -71 106 -70 12 0 35 5 51 11 27 11 28 13 12 30 -21 24 -23 149 -1 177 29
38 18 41 -55 19z"/>
<path d="M2440 2478 c-103 -62 -307 -162 -410 -203 -52 -21 -97 -39 -99 -41
-9 -8 70 -34 102 -34 19 0 39 -6 44 -12 32 -41 52 -269 36 -402 l-8 -70 -70
-48 c-76 -52 -179 -99 -271 -123 -86 -23 -255 -36 -366 -29 l-98 7 0 64 c0 70
16 118 48 147 21 19 21 19 2 46 -16 23 -20 44 -20 116 0 86 0 88 40 140 22 29
40 55 40 56 0 2 -53 -4 -117 -13 -65 -10 -166 -21 -226 -24 -59 -4 -107 -12
-107 -17 0 -43 95 -136 159 -158 64 -21 81 -42 81 -103 0 -31 6 -61 15 -73 9
-11 14 -42 15 -76 l0 -58 -61 0 c-153 0 -406 190 -520 391 -49 86 -54 92 -72
88 -15 -3 -9 -18 33 -87 64 -103 206 -253 305 -321 207 -144 479 -215 685
-181 341 57 630 265 788 568 77 149 129 342 120 448 l-3 40 -65 -38z"/>
<path d="M2897 2233 c-4 -3 -7 -22 -7 -42 0 -20 -27 -131 -60 -246 -33 -115
-60 -213 -60 -217 0 -5 29 -8 65 -8 l65 0 0 58 c0 72 25 162 45 162 11 0 15
13 15 53 0 29 11 91 25 138 13 46 25 90 25 97 0 13 -101 18 -113 5z"/>
<path d="M3210 2136 c0 -47 -6 -101 -15 -125 -8 -22 -10 -41 -6 -41 23 0 94
66 113 105 27 55 18 89 -31 122 -56 38 -61 33 -61 -61z"/>
<path d="M4706 2150 c-39 -36 -61 -50 -82 -50 l-29 0 3 -64 c3 -50 -3 -86 -28
-165 -17 -56 -28 -106 -25 -111 14 -22 68 -42 99 -36 l31 6 -3 67 c-3 55 3 91
34 195 24 82 42 128 51 128 9 0 13 13 13 40 0 22 -3 40 -6 40 -3 0 -29 -22
-58 -50z"/>
<path d="M4093 2090 c-20 -8 -23 -17 -23 -62 0 -43 -39 -198 -75 -295 -3 -10
13 -13 60 -13 l65 0 0 49 c0 28 16 101 39 174 36 118 37 127 21 142 -18 17
-53 19 -87 5z"/>
<path d="M5033 2090 c-19 -8 -23 -17 -23 -57 0 -27 -17 -104 -40 -178 -22 -71
-40 -131 -40 -132 0 -2 27 -3 60 -3 l60 0 0 36 c0 39 64 259 81 281 9 10 7 19
-5 38 -17 26 -51 32 -93 15z"/>
<path d="M5325 2089 c-18 -9 -20 -18 -17 -79 4 -58 -1 -81 -28 -154 -31 -82
-32 -87 -16 -105 23 -25 58 -33 90 -21 24 9 26 14 26 69 0 37 10 91 25 138 31
97 31 108 0 138 -25 26 -47 30 -80 14z"/>
<path d="M6213 2090 c-20 -8 -23 -17 -23 -62 0 -43 -39 -198 -75 -295 -3 -10
13 -13 60 -13 l65 0 0 49 c0 28 16 101 39 174 36 118 37 127 21 142 -18 17
-53 19 -87 5z"/>
<path d="M3730 2027 c0 -56 -25 -147 -41 -147 -5 0 -9 -11 -9 -24 0 -14 -5
-37 -11 -53 -9 -25 -7 -31 16 -50 29 -25 64 -30 83 -11 7 7 12 36 12 66 0 30
9 86 20 123 16 51 18 74 10 88 -11 21 -58 61 -71 61 -5 0 -9 -24 -9 -53z"/>
<path d="M5670 2034 c-37 -33 -80 -120 -80 -160 0 -32 34 -86 69 -110 55 -37
101 -47 147 -30 l39 15 -36 0 c-58 1 -96 19 -109 52 -14 32 -6 201 10 245 13
32 7 30 -40 -12z"/>
</g>
</svg>
